<mxfile host="app.diagrams.net" modified="2021-08-18T20:21:48.056Z" agent="5.0 (Windows NT 10.0; Win64; x64) AppleWebKit/537.36 (KHTML, like Gecko) Chrome/92.0.4515.131 Safari/537.36" etag="XYvv_CszRUzgk8mG30ab" version="14.9.6" type="github" pages="2">
  <diagram id="R2lEEEUBdFMjLlhIrx00" name="Page-1">
    <mxGraphModel dx="1283" dy="613" grid="1" gridSize="10" guides="1" tooltips="1" connect="1" arrows="1" fold="1" page="1" pageScale="1" pageWidth="1100" pageHeight="850" math="0" shadow="0" extFonts="Permanent Marker^https://fonts.googleapis.com/css?family=Permanent+Marker">
      <root>
        <mxCell id="0" />
        <mxCell id="1" parent="0" />
        <mxCell id="C-vyLk0tnHw3VtMMgP7b-13" value="Monthly Invoice" style="shape=table;startSize=20;container=1;collapsible=1;childLayout=tableLayout;fixedRows=1;rowLines=0;fontStyle=1;align=center;resizeLast=1;fillColor=#1ba1e2;strokeColor=#006EAF;fontColor=#ffffff;" parent="1" vertex="1">
          <mxGeometry x="140" y="400" width="150" height="160.0000000000001" as="geometry" />
        </mxCell>
        <mxCell id="C-vyLk0tnHw3VtMMgP7b-14" value="" style="shape=partialRectangle;collapsible=0;dropTarget=0;pointerEvents=0;fillColor=none;points=[[0,0.5],[1,0.5]];portConstraint=eastwest;top=0;left=0;right=0;bottom=1;strokeColor=#3333FF;" parent="C-vyLk0tnHw3VtMMgP7b-13" vertex="1">
          <mxGeometry y="20" width="150" height="30" as="geometry" />
        </mxCell>
        <mxCell id="C-vyLk0tnHw3VtMMgP7b-15" value="PK" style="shape=partialRectangle;overflow=hidden;connectable=0;fillColor=none;top=0;left=0;bottom=0;right=0;fontStyle=1;" parent="C-vyLk0tnHw3VtMMgP7b-14" vertex="1">
          <mxGeometry width="30" height="30" as="geometry" />
        </mxCell>
        <mxCell id="C-vyLk0tnHw3VtMMgP7b-16" value="Invoice_ID" style="shape=partialRectangle;overflow=hidden;connectable=0;fillColor=none;top=0;left=0;bottom=0;right=0;align=left;spacingLeft=6;fontStyle=5;" parent="C-vyLk0tnHw3VtMMgP7b-14" vertex="1">
          <mxGeometry x="30" width="120" height="30" as="geometry" />
        </mxCell>
        <mxCell id="C-vyLk0tnHw3VtMMgP7b-17" value="" style="shape=partialRectangle;collapsible=0;dropTarget=0;pointerEvents=0;fillColor=none;points=[[0,0.5],[1,0.5]];portConstraint=eastwest;top=0;left=0;right=0;bottom=0;" parent="C-vyLk0tnHw3VtMMgP7b-13" vertex="1">
          <mxGeometry y="50" width="150" height="60" as="geometry" />
        </mxCell>
        <mxCell id="C-vyLk0tnHw3VtMMgP7b-18" value="FK1&#xa;FK2" style="shape=partialRectangle;overflow=hidden;connectable=0;fillColor=none;top=0;left=0;bottom=0;right=0;" parent="C-vyLk0tnHw3VtMMgP7b-17" vertex="1">
          <mxGeometry width="30" height="60" as="geometry" />
        </mxCell>
        <mxCell id="C-vyLk0tnHw3VtMMgP7b-19" value="Employee_ID&#xa;Order_ID" style="shape=partialRectangle;overflow=hidden;connectable=0;fillColor=none;top=0;left=0;bottom=0;right=0;align=left;spacingLeft=6;" parent="C-vyLk0tnHw3VtMMgP7b-17" vertex="1">
          <mxGeometry x="30" width="120" height="60" as="geometry" />
        </mxCell>
        <mxCell id="C-vyLk0tnHw3VtMMgP7b-20" value="" style="shape=partialRectangle;collapsible=0;dropTarget=0;pointerEvents=0;fillColor=none;points=[[0,0.5],[1,0.5]];portConstraint=eastwest;top=0;left=0;right=0;bottom=0;" parent="C-vyLk0tnHw3VtMMgP7b-13" vertex="1">
          <mxGeometry y="110" width="150" height="50" as="geometry" />
        </mxCell>
        <mxCell id="C-vyLk0tnHw3VtMMgP7b-21" value="" style="shape=partialRectangle;overflow=hidden;connectable=0;fillColor=none;top=0;left=0;bottom=0;right=0;" parent="C-vyLk0tnHw3VtMMgP7b-20" vertex="1">
          <mxGeometry width="30" height="50" as="geometry" />
        </mxCell>
        <mxCell id="C-vyLk0tnHw3VtMMgP7b-22" value="Total_cost" style="shape=partialRectangle;overflow=hidden;connectable=0;fillColor=none;top=0;left=0;bottom=0;right=0;align=left;spacingLeft=6;" parent="C-vyLk0tnHw3VtMMgP7b-20" vertex="1">
          <mxGeometry x="30" width="120" height="50" as="geometry" />
        </mxCell>
        <mxCell id="NOTi56TdMc8tdBzLisbQ-17" value="Feedback" style="shape=table;startSize=22;container=1;collapsible=1;childLayout=tableLayout;fixedRows=1;rowLines=0;fontStyle=1;align=center;resizeLast=1;fillColor=#1ba1e2;strokeColor=#006EAF;fontColor=#ffffff;" vertex="1" parent="1">
          <mxGeometry x="350" y="147.5" width="170" height="140" as="geometry" />
        </mxCell>
        <mxCell id="NOTi56TdMc8tdBzLisbQ-18" value="" style="shape=partialRectangle;collapsible=0;dropTarget=0;pointerEvents=0;fillColor=none;points=[[0,0.5],[1,0.5]];portConstraint=eastwest;top=0;left=0;right=0;bottom=1;strokeColor=#3333FF;" vertex="1" parent="NOTi56TdMc8tdBzLisbQ-17">
          <mxGeometry y="22" width="170" height="20" as="geometry" />
        </mxCell>
        <mxCell id="NOTi56TdMc8tdBzLisbQ-19" value="PK" style="shape=partialRectangle;overflow=hidden;connectable=0;fillColor=none;top=0;left=0;bottom=0;right=0;fontStyle=1;" vertex="1" parent="NOTi56TdMc8tdBzLisbQ-18">
          <mxGeometry width="30" height="20" as="geometry" />
        </mxCell>
        <mxCell id="NOTi56TdMc8tdBzLisbQ-20" value="Feedback_id" style="shape=partialRectangle;overflow=hidden;connectable=0;fillColor=none;top=0;left=0;bottom=0;right=0;align=left;spacingLeft=6;fontStyle=5;" vertex="1" parent="NOTi56TdMc8tdBzLisbQ-18">
          <mxGeometry x="30" width="140" height="20" as="geometry" />
        </mxCell>
        <mxCell id="NOTi56TdMc8tdBzLisbQ-21" value="" style="shape=partialRectangle;collapsible=0;dropTarget=0;pointerEvents=0;fillColor=none;points=[[0,0.5],[1,0.5]];portConstraint=eastwest;top=0;left=0;right=0;bottom=0;" vertex="1" parent="NOTi56TdMc8tdBzLisbQ-17">
          <mxGeometry y="42" width="170" height="30" as="geometry" />
        </mxCell>
        <mxCell id="NOTi56TdMc8tdBzLisbQ-22" value="FK1" style="shape=partialRectangle;overflow=hidden;connectable=0;fillColor=none;top=0;left=0;bottom=0;right=0;" vertex="1" parent="NOTi56TdMc8tdBzLisbQ-21">
          <mxGeometry width="30" height="30" as="geometry" />
        </mxCell>
        <mxCell id="NOTi56TdMc8tdBzLisbQ-23" value="Employee_id" style="shape=partialRectangle;overflow=hidden;connectable=0;fillColor=none;top=0;left=0;bottom=0;right=0;align=left;spacingLeft=6;" vertex="1" parent="NOTi56TdMc8tdBzLisbQ-21">
          <mxGeometry x="30" width="140" height="30" as="geometry" />
        </mxCell>
        <mxCell id="NOTi56TdMc8tdBzLisbQ-24" value="" style="shape=partialRectangle;collapsible=0;dropTarget=0;pointerEvents=0;fillColor=none;points=[[0,0.5],[1,0.5]];portConstraint=eastwest;top=0;left=0;right=0;bottom=0;" vertex="1" parent="NOTi56TdMc8tdBzLisbQ-17">
          <mxGeometry y="72" width="170" height="50" as="geometry" />
        </mxCell>
        <mxCell id="NOTi56TdMc8tdBzLisbQ-25" value="" style="shape=partialRectangle;overflow=hidden;connectable=0;fillColor=none;top=0;left=0;bottom=0;right=0;" vertex="1" parent="NOTi56TdMc8tdBzLisbQ-24">
          <mxGeometry width="30" height="50" as="geometry" />
        </mxCell>
        <mxCell id="NOTi56TdMc8tdBzLisbQ-26" value="Feedback detail&#xa;OrderNo&#xa;Feedback_date" style="shape=partialRectangle;overflow=hidden;connectable=0;fillColor=none;top=0;left=0;bottom=0;right=0;align=left;spacingLeft=6;" vertex="1" parent="NOTi56TdMc8tdBzLisbQ-24">
          <mxGeometry x="30" width="140" height="50" as="geometry" />
        </mxCell>
        <mxCell id="y0bhlYf6M-Ho5EivJvn0-1" value="Daily Menu" style="shape=table;startSize=20;container=1;collapsible=1;childLayout=tableLayout;fixedRows=1;rowLines=0;fontStyle=1;align=center;resizeLast=1;fillColor=#1ba1e2;strokeColor=#006EAF;fontColor=#ffffff;" vertex="1" parent="1">
          <mxGeometry x="370" y="600" width="160" height="160" as="geometry" />
        </mxCell>
        <mxCell id="y0bhlYf6M-Ho5EivJvn0-2" value="" style="shape=partialRectangle;collapsible=0;dropTarget=0;pointerEvents=0;fillColor=none;points=[[0,0.5],[1,0.5]];portConstraint=eastwest;top=0;left=0;right=0;bottom=1;" vertex="1" parent="y0bhlYf6M-Ho5EivJvn0-1">
          <mxGeometry y="20" width="160" height="20" as="geometry" />
        </mxCell>
        <mxCell id="y0bhlYf6M-Ho5EivJvn0-3" value="PK" style="shape=partialRectangle;overflow=hidden;connectable=0;fillColor=none;top=0;left=0;bottom=0;right=0;fontStyle=1;" vertex="1" parent="y0bhlYf6M-Ho5EivJvn0-2">
          <mxGeometry width="30" height="20" as="geometry" />
        </mxCell>
        <mxCell id="y0bhlYf6M-Ho5EivJvn0-4" value="Menu_Id" style="shape=partialRectangle;overflow=hidden;connectable=0;fillColor=none;top=0;left=0;bottom=0;right=0;align=left;spacingLeft=6;fontStyle=5;" vertex="1" parent="y0bhlYf6M-Ho5EivJvn0-2">
          <mxGeometry x="30" width="130" height="20" as="geometry" />
        </mxCell>
        <mxCell id="y0bhlYf6M-Ho5EivJvn0-5" value="" style="shape=partialRectangle;collapsible=0;dropTarget=0;pointerEvents=0;fillColor=none;points=[[0,0.5],[1,0.5]];portConstraint=eastwest;top=0;left=0;right=0;bottom=0;" vertex="1" parent="y0bhlYf6M-Ho5EivJvn0-1">
          <mxGeometry y="40" width="160" height="20" as="geometry" />
        </mxCell>
        <mxCell id="y0bhlYf6M-Ho5EivJvn0-6" value="FK1" style="shape=partialRectangle;overflow=hidden;connectable=0;fillColor=none;top=0;left=0;bottom=0;right=0;" vertex="1" parent="y0bhlYf6M-Ho5EivJvn0-5">
          <mxGeometry width="30" height="20" as="geometry" />
        </mxCell>
        <mxCell id="y0bhlYf6M-Ho5EivJvn0-7" value="Item_id" style="shape=partialRectangle;overflow=hidden;connectable=0;fillColor=none;top=0;left=0;bottom=0;right=0;align=left;spacingLeft=6;" vertex="1" parent="y0bhlYf6M-Ho5EivJvn0-5">
          <mxGeometry x="30" width="130" height="20" as="geometry" />
        </mxCell>
        <mxCell id="y0bhlYf6M-Ho5EivJvn0-8" value="" style="shape=partialRectangle;collapsible=0;dropTarget=0;pointerEvents=0;fillColor=none;points=[[0,0.5],[1,0.5]];portConstraint=eastwest;top=0;left=0;right=0;bottom=0;" vertex="1" parent="y0bhlYf6M-Ho5EivJvn0-1">
          <mxGeometry y="60" width="160" height="80" as="geometry" />
        </mxCell>
        <mxCell id="y0bhlYf6M-Ho5EivJvn0-9" value="" style="shape=partialRectangle;overflow=hidden;connectable=0;fillColor=none;top=0;left=0;bottom=0;right=0;" vertex="1" parent="y0bhlYf6M-Ho5EivJvn0-8">
          <mxGeometry width="30" height="80" as="geometry" />
        </mxCell>
        <mxCell id="y0bhlYf6M-Ho5EivJvn0-10" value="Item_name&#xa;Item_price&#xa;DAte_available&#xa;Item_category&#xa;Quantity available&#xa;" style="shape=partialRectangle;overflow=hidden;connectable=0;fillColor=none;top=0;left=0;bottom=0;right=0;align=left;spacingLeft=6;" vertex="1" parent="y0bhlYf6M-Ho5EivJvn0-8">
          <mxGeometry x="30" width="130" height="80" as="geometry" />
        </mxCell>
        <mxCell id="y0bhlYf6M-Ho5EivJvn0-11" value="Reports" style="shape=table;startSize=20;container=1;collapsible=1;childLayout=tableLayout;fixedRows=1;rowLines=0;fontStyle=1;align=center;resizeLast=1;fillColor=#1ba1e2;strokeColor=#006EAF;fontColor=#ffffff;" vertex="1" parent="1">
          <mxGeometry x="640" y="140" width="170" height="152.5" as="geometry" />
        </mxCell>
        <mxCell id="y0bhlYf6M-Ho5EivJvn0-12" value="" style="shape=partialRectangle;collapsible=0;dropTarget=0;pointerEvents=0;fillColor=none;points=[[0,0.5],[1,0.5]];portConstraint=eastwest;top=0;left=0;right=0;bottom=1;strokeColor=#3333FF;" vertex="1" parent="y0bhlYf6M-Ho5EivJvn0-11">
          <mxGeometry y="20" width="170" height="20" as="geometry" />
        </mxCell>
        <mxCell id="y0bhlYf6M-Ho5EivJvn0-13" value="PK" style="shape=partialRectangle;overflow=hidden;connectable=0;fillColor=none;top=0;left=0;bottom=0;right=0;fontStyle=1;" vertex="1" parent="y0bhlYf6M-Ho5EivJvn0-12">
          <mxGeometry width="40" height="20" as="geometry" />
        </mxCell>
        <mxCell id="y0bhlYf6M-Ho5EivJvn0-14" value="Report_Id" style="shape=partialRectangle;overflow=hidden;connectable=0;fillColor=none;top=0;left=0;bottom=0;right=0;align=left;spacingLeft=6;fontStyle=5;" vertex="1" parent="y0bhlYf6M-Ho5EivJvn0-12">
          <mxGeometry x="40" width="130" height="20" as="geometry" />
        </mxCell>
        <mxCell id="y0bhlYf6M-Ho5EivJvn0-15" value="" style="shape=partialRectangle;collapsible=0;dropTarget=0;pointerEvents=0;fillColor=none;points=[[0,0.5],[1,0.5]];portConstraint=eastwest;top=0;left=0;right=0;bottom=0;" vertex="1" parent="y0bhlYf6M-Ho5EivJvn0-11">
          <mxGeometry y="40" width="170" height="60" as="geometry" />
        </mxCell>
        <mxCell id="y0bhlYf6M-Ho5EivJvn0-16" value="FK1&#xa;FK2&#xa;FK3" style="shape=partialRectangle;overflow=hidden;connectable=0;fillColor=none;top=0;left=0;bottom=0;right=0;" vertex="1" parent="y0bhlYf6M-Ho5EivJvn0-15">
          <mxGeometry width="40" height="60" as="geometry" />
        </mxCell>
        <mxCell id="y0bhlYf6M-Ho5EivJvn0-17" value="Feedback_ID&#xa;order_id&#xa;Employee_ID" style="shape=partialRectangle;overflow=hidden;connectable=0;fillColor=none;top=0;left=0;bottom=0;right=0;align=left;spacingLeft=6;" vertex="1" parent="y0bhlYf6M-Ho5EivJvn0-15">
          <mxGeometry x="40" width="130" height="60" as="geometry" />
        </mxCell>
        <mxCell id="y0bhlYf6M-Ho5EivJvn0-18" value="" style="shape=partialRectangle;collapsible=0;dropTarget=0;pointerEvents=0;fillColor=none;points=[[0,0.5],[1,0.5]];portConstraint=eastwest;top=0;left=0;right=0;bottom=0;" vertex="1" parent="y0bhlYf6M-Ho5EivJvn0-11">
          <mxGeometry y="100" width="170" height="50" as="geometry" />
        </mxCell>
        <mxCell id="y0bhlYf6M-Ho5EivJvn0-19" value="" style="shape=partialRectangle;overflow=hidden;connectable=0;fillColor=none;top=0;left=0;bottom=0;right=0;" vertex="1" parent="y0bhlYf6M-Ho5EivJvn0-18">
          <mxGeometry width="40" height="50" as="geometry" />
        </mxCell>
        <mxCell id="y0bhlYf6M-Ho5EivJvn0-20" value="Report_Summary" style="shape=partialRectangle;overflow=hidden;connectable=0;fillColor=none;top=0;left=0;bottom=0;right=0;align=left;spacingLeft=6;" vertex="1" parent="y0bhlYf6M-Ho5EivJvn0-18">
          <mxGeometry x="40" width="130" height="50" as="geometry" />
        </mxCell>
        <mxCell id="y0bhlYf6M-Ho5EivJvn0-21" value="Delivery Request" style="shape=table;startSize=30;container=1;collapsible=1;childLayout=tableLayout;fixedRows=1;rowLines=0;fontStyle=1;align=center;resizeLast=1;fillColor=#1ba1e2;strokeColor=#006EAF;fontColor=#ffffff;" vertex="1" parent="1">
          <mxGeometry x="860" y="116.25" width="170" height="200" as="geometry" />
        </mxCell>
        <mxCell id="y0bhlYf6M-Ho5EivJvn0-22" value="" style="shape=partialRectangle;collapsible=0;dropTarget=0;pointerEvents=0;fillColor=none;points=[[0,0.5],[1,0.5]];portConstraint=eastwest;top=0;left=0;right=0;bottom=1;strokeColor=#3333FF;" vertex="1" parent="y0bhlYf6M-Ho5EivJvn0-21">
          <mxGeometry y="30" width="170" height="30" as="geometry" />
        </mxCell>
        <mxCell id="y0bhlYf6M-Ho5EivJvn0-23" value="PK" style="shape=partialRectangle;overflow=hidden;connectable=0;fillColor=none;top=0;left=0;bottom=0;right=0;fontStyle=1;" vertex="1" parent="y0bhlYf6M-Ho5EivJvn0-22">
          <mxGeometry width="50.000000000000114" height="30" as="geometry" />
        </mxCell>
        <mxCell id="y0bhlYf6M-Ho5EivJvn0-24" value="Delivery_ID" style="shape=partialRectangle;overflow=hidden;connectable=0;fillColor=none;top=0;left=0;bottom=0;right=0;align=left;spacingLeft=6;fontStyle=5;" vertex="1" parent="y0bhlYf6M-Ho5EivJvn0-22">
          <mxGeometry x="50.000000000000114" width="119.99999999999989" height="30" as="geometry" />
        </mxCell>
        <mxCell id="y0bhlYf6M-Ho5EivJvn0-25" value="" style="shape=partialRectangle;collapsible=0;dropTarget=0;pointerEvents=0;fillColor=none;points=[[0,0.5],[1,0.5]];portConstraint=eastwest;top=0;left=0;right=0;bottom=0;" vertex="1" parent="y0bhlYf6M-Ho5EivJvn0-21">
          <mxGeometry y="60" width="170" height="50" as="geometry" />
        </mxCell>
        <mxCell id="y0bhlYf6M-Ho5EivJvn0-26" value="&#xa;FK1&#xa;FK2&#xa;" style="shape=partialRectangle;overflow=hidden;connectable=0;fillColor=none;top=0;left=0;bottom=0;right=0;" vertex="1" parent="y0bhlYf6M-Ho5EivJvn0-25">
          <mxGeometry width="50.000000000000114" height="50" as="geometry" />
        </mxCell>
        <mxCell id="y0bhlYf6M-Ho5EivJvn0-27" value="Order_ID&#xa;Employee_ID" style="shape=partialRectangle;overflow=hidden;connectable=0;fillColor=none;top=0;left=0;bottom=0;right=0;align=left;spacingLeft=6;" vertex="1" parent="y0bhlYf6M-Ho5EivJvn0-25">
          <mxGeometry x="50.000000000000114" width="119.99999999999989" height="50" as="geometry" />
        </mxCell>
        <mxCell id="y0bhlYf6M-Ho5EivJvn0-28" value="" style="shape=partialRectangle;collapsible=0;dropTarget=0;pointerEvents=0;fillColor=none;points=[[0,0.5],[1,0.5]];portConstraint=eastwest;top=0;left=0;right=0;bottom=0;" vertex="1" parent="y0bhlYf6M-Ho5EivJvn0-21">
          <mxGeometry y="110" width="170" height="80" as="geometry" />
        </mxCell>
        <mxCell id="y0bhlYf6M-Ho5EivJvn0-29" value="" style="shape=partialRectangle;overflow=hidden;connectable=0;fillColor=none;top=0;left=0;bottom=0;right=0;" vertex="1" parent="y0bhlYf6M-Ho5EivJvn0-28">
          <mxGeometry width="50.000000000000114" height="80" as="geometry" />
        </mxCell>
        <mxCell id="y0bhlYf6M-Ho5EivJvn0-30" value="Delivery_date&#xa;Delivery_status" style="shape=partialRectangle;overflow=hidden;connectable=0;fillColor=none;top=0;left=0;bottom=0;right=0;align=left;spacingLeft=6;" vertex="1" parent="y0bhlYf6M-Ho5EivJvn0-28">
          <mxGeometry x="50.000000000000114" width="119.99999999999989" height="80" as="geometry" />
        </mxCell>
        <mxCell id="y0bhlYf6M-Ho5EivJvn0-31" value="Payroll" style="shape=table;startSize=25;container=1;collapsible=1;childLayout=tableLayout;fixedRows=1;rowLines=0;fontStyle=1;align=center;resizeLast=1;fillColor=#1ba1e2;strokeColor=#006EAF;fontColor=#ffffff;" vertex="1" parent="1">
          <mxGeometry x="106" y="614" width="180" height="155" as="geometry" />
        </mxCell>
        <mxCell id="y0bhlYf6M-Ho5EivJvn0-32" value="" style="shape=partialRectangle;collapsible=0;dropTarget=0;pointerEvents=0;fillColor=none;points=[[0,0.5],[1,0.5]];portConstraint=eastwest;top=0;left=0;right=0;bottom=1;" vertex="1" parent="y0bhlYf6M-Ho5EivJvn0-31">
          <mxGeometry y="25" width="180" height="30" as="geometry" />
        </mxCell>
        <mxCell id="y0bhlYf6M-Ho5EivJvn0-33" value="PK" style="shape=partialRectangle;overflow=hidden;connectable=0;fillColor=none;top=0;left=0;bottom=0;right=0;fontStyle=1;" vertex="1" parent="y0bhlYf6M-Ho5EivJvn0-32">
          <mxGeometry width="40" height="30" as="geometry" />
        </mxCell>
        <mxCell id="y0bhlYf6M-Ho5EivJvn0-34" value="Payroll_ID" style="shape=partialRectangle;overflow=hidden;connectable=0;fillColor=none;top=0;left=0;bottom=0;right=0;align=left;spacingLeft=6;fontStyle=5;" vertex="1" parent="y0bhlYf6M-Ho5EivJvn0-32">
          <mxGeometry x="40" width="140" height="30" as="geometry" />
        </mxCell>
        <mxCell id="y0bhlYf6M-Ho5EivJvn0-35" value="" style="shape=partialRectangle;collapsible=0;dropTarget=0;pointerEvents=0;fillColor=none;points=[[0,0.5],[1,0.5]];portConstraint=eastwest;top=0;left=0;right=0;bottom=0;" vertex="1" parent="y0bhlYf6M-Ho5EivJvn0-31">
          <mxGeometry y="55" width="180" height="50" as="geometry" />
        </mxCell>
        <mxCell id="y0bhlYf6M-Ho5EivJvn0-36" value="&#xa;FK1&#xa;FK2&#xa;" style="shape=partialRectangle;overflow=hidden;connectable=0;fillColor=none;top=0;left=0;bottom=0;right=0;" vertex="1" parent="y0bhlYf6M-Ho5EivJvn0-35">
          <mxGeometry width="40" height="50" as="geometry" />
        </mxCell>
        <mxCell id="y0bhlYf6M-Ho5EivJvn0-37" value="Invoice_ID&#xa;Employee_ID" style="shape=partialRectangle;overflow=hidden;connectable=0;fillColor=none;top=0;left=0;bottom=0;right=0;align=left;spacingLeft=6;" vertex="1" parent="y0bhlYf6M-Ho5EivJvn0-35">
          <mxGeometry x="40" width="140" height="50" as="geometry" />
        </mxCell>
        <mxCell id="y0bhlYf6M-Ho5EivJvn0-38" value="" style="shape=partialRectangle;collapsible=0;dropTarget=0;pointerEvents=0;fillColor=none;points=[[0,0.5],[1,0.5]];portConstraint=eastwest;top=0;left=0;right=0;bottom=0;" vertex="1" parent="y0bhlYf6M-Ho5EivJvn0-31">
          <mxGeometry y="105" width="180" height="50" as="geometry" />
        </mxCell>
        <mxCell id="y0bhlYf6M-Ho5EivJvn0-39" value="" style="shape=partialRectangle;overflow=hidden;connectable=0;fillColor=none;top=0;left=0;bottom=0;right=0;" vertex="1" parent="y0bhlYf6M-Ho5EivJvn0-38">
          <mxGeometry width="40" height="50" as="geometry" />
        </mxCell>
        <mxCell id="y0bhlYf6M-Ho5EivJvn0-40" value="AnnualEmp_Salary&#xa;Net_salary" style="shape=partialRectangle;overflow=hidden;connectable=0;fillColor=none;top=0;left=0;bottom=0;right=0;align=left;spacingLeft=6;" vertex="1" parent="y0bhlYf6M-Ho5EivJvn0-38">
          <mxGeometry x="40" width="140" height="50" as="geometry" />
        </mxCell>
        <mxCell id="y0bhlYf6M-Ho5EivJvn0-58" value="Employee" style="shape=table;startSize=20;container=1;collapsible=1;childLayout=tableLayout;fixedRows=1;rowLines=0;fontStyle=0;align=center;resizeLast=1;fillColor=#1ba1e2;fontColor=#ffffff;strokeWidth=4;strokeColor=#006EAF;" vertex="1" parent="1">
          <mxGeometry x="80" y="120" width="190" height="200" as="geometry" />
        </mxCell>
        <mxCell id="y0bhlYf6M-Ho5EivJvn0-59" value="" style="shape=partialRectangle;collapsible=0;dropTarget=0;pointerEvents=0;fillColor=#0050ef;points=[[0,0.5],[1,0.5]];portConstraint=eastwest;top=0;left=0;right=0;bottom=1;strokeWidth=5;fontColor=#ffffff;strokeColor=#3333FF;" vertex="1" parent="y0bhlYf6M-Ho5EivJvn0-58">
          <mxGeometry y="20" width="190" height="30" as="geometry" />
        </mxCell>
        <mxCell id="y0bhlYf6M-Ho5EivJvn0-60" value="PK" style="shape=partialRectangle;overflow=hidden;connectable=0;top=0;left=0;bottom=0;right=0;fontStyle=1;strokeColor=#009BF7;" vertex="1" parent="y0bhlYf6M-Ho5EivJvn0-59">
          <mxGeometry width="50.000000000000114" height="30" as="geometry" />
        </mxCell>
        <mxCell id="y0bhlYf6M-Ho5EivJvn0-61" value="Employee_id " style="shape=partialRectangle;overflow=hidden;connectable=0;top=0;left=0;bottom=0;right=0;align=left;spacingLeft=6;fontStyle=5;" vertex="1" parent="y0bhlYf6M-Ho5EivJvn0-59">
          <mxGeometry x="50.000000000000114" width="139.9999999999999" height="30" as="geometry" />
        </mxCell>
        <mxCell id="y0bhlYf6M-Ho5EivJvn0-62" value="" style="shape=partialRectangle;collapsible=0;dropTarget=0;pointerEvents=0;fillColor=#1ba1e2;points=[[0,0.5],[1,0.5]];portConstraint=eastwest;top=0;left=0;right=0;bottom=0;fontColor=#ffffff;strokeColor=#009BF7;" vertex="1" parent="y0bhlYf6M-Ho5EivJvn0-58">
          <mxGeometry y="50" width="190" height="40" as="geometry" />
        </mxCell>
        <mxCell id="y0bhlYf6M-Ho5EivJvn0-63" value="FK1" style="shape=partialRectangle;overflow=hidden;connectable=0;top=0;left=0;bottom=0;right=0;" vertex="1" parent="y0bhlYf6M-Ho5EivJvn0-62">
          <mxGeometry width="50.000000000000114" height="40" as="geometry" />
        </mxCell>
        <mxCell id="y0bhlYf6M-Ho5EivJvn0-64" value="Payroll _id&#xa;" style="shape=partialRectangle;overflow=hidden;connectable=0;top=0;left=0;bottom=0;right=0;align=left;spacingLeft=6;" vertex="1" parent="y0bhlYf6M-Ho5EivJvn0-62">
          <mxGeometry x="50.000000000000114" width="139.9999999999999" height="40" as="geometry" />
        </mxCell>
        <mxCell id="y0bhlYf6M-Ho5EivJvn0-65" value="" style="shape=partialRectangle;collapsible=0;dropTarget=0;pointerEvents=0;points=[[0,0.5],[1,0.5]];portConstraint=eastwest;top=0;left=0;right=0;bottom=0;" vertex="1" parent="y0bhlYf6M-Ho5EivJvn0-58">
          <mxGeometry y="90" width="190" height="110" as="geometry" />
        </mxCell>
        <mxCell id="y0bhlYf6M-Ho5EivJvn0-66" value="" style="shape=partialRectangle;overflow=hidden;connectable=0;top=0;left=0;bottom=0;right=0;" vertex="1" parent="y0bhlYf6M-Ho5EivJvn0-65">
          <mxGeometry width="50.000000000000114" height="110" as="geometry" />
        </mxCell>
        <mxCell id="y0bhlYf6M-Ho5EivJvn0-67" value="Employee first_name&#xa;Employee last_name&#xa;Email&#xa;Mobile&#xa;Floor no&#xa;Seat no" style="shape=partialRectangle;overflow=hidden;connectable=0;top=0;left=0;bottom=0;right=0;align=left;spacingLeft=6;" vertex="1" parent="y0bhlYf6M-Ho5EivJvn0-65">
          <mxGeometry x="50.000000000000114" width="139.9999999999999" height="110" as="geometry" />
        </mxCell>
        <mxCell id="y0bhlYf6M-Ho5EivJvn0-74" value="Orders" style="shape=table;startSize=25;container=1;collapsible=1;childLayout=tableLayout;fixedRows=1;rowLines=0;fontStyle=1;align=center;resizeLast=1;fillColor=#1ba1e2;strokeColor=#006EAF;fontColor=#ffffff;" vertex="1" parent="1">
          <mxGeometry x="780" y="430" width="200" height="205" as="geometry" />
        </mxCell>
        <mxCell id="y0bhlYf6M-Ho5EivJvn0-75" value="" style="shape=partialRectangle;collapsible=0;dropTarget=0;pointerEvents=0;fillColor=none;points=[[0,0.5],[1,0.5]];portConstraint=eastwest;top=0;left=0;right=0;bottom=1;strokeColor=#3333FF;" vertex="1" parent="y0bhlYf6M-Ho5EivJvn0-74">
          <mxGeometry y="25" width="200" height="20" as="geometry" />
        </mxCell>
        <mxCell id="y0bhlYf6M-Ho5EivJvn0-76" value="PK" style="shape=partialRectangle;overflow=hidden;connectable=0;fillColor=none;top=0;left=0;bottom=0;right=0;fontStyle=1;" vertex="1" parent="y0bhlYf6M-Ho5EivJvn0-75">
          <mxGeometry width="50.000000000000114" height="20" as="geometry" />
        </mxCell>
        <mxCell id="y0bhlYf6M-Ho5EivJvn0-77" value="order_id " style="shape=partialRectangle;overflow=hidden;connectable=0;fillColor=none;top=0;left=0;bottom=0;right=0;align=left;spacingLeft=6;fontStyle=5;" vertex="1" parent="y0bhlYf6M-Ho5EivJvn0-75">
          <mxGeometry x="50.000000000000114" width="149.9999999999999" height="20" as="geometry" />
        </mxCell>
        <mxCell id="y0bhlYf6M-Ho5EivJvn0-78" value="" style="shape=partialRectangle;collapsible=0;dropTarget=0;pointerEvents=0;fillColor=none;points=[[0,0.5],[1,0.5]];portConstraint=eastwest;top=0;left=0;right=0;bottom=0;" vertex="1" parent="y0bhlYf6M-Ho5EivJvn0-74">
          <mxGeometry y="45" width="200" height="65" as="geometry" />
        </mxCell>
        <mxCell id="y0bhlYf6M-Ho5EivJvn0-79" value="FK1&#xa;FK2&#xa;FK3" style="shape=partialRectangle;overflow=hidden;connectable=0;fillColor=none;top=0;left=0;bottom=0;right=0;" vertex="1" parent="y0bhlYf6M-Ho5EivJvn0-78">
          <mxGeometry width="50.000000000000114" height="65" as="geometry" />
        </mxCell>
        <mxCell id="y0bhlYf6M-Ho5EivJvn0-80" value="&#xa;Item_id&#xa;Employee_ID&#xa;COS_ID&#xa;" style="shape=partialRectangle;overflow=hidden;connectable=0;fillColor=none;top=0;left=0;bottom=0;right=0;align=left;spacingLeft=6;" vertex="1" parent="y0bhlYf6M-Ho5EivJvn0-78">
          <mxGeometry x="50.000000000000114" width="149.9999999999999" height="65" as="geometry" />
        </mxCell>
        <mxCell id="y0bhlYf6M-Ho5EivJvn0-81" value="" style="shape=partialRectangle;collapsible=0;dropTarget=0;pointerEvents=0;fillColor=none;points=[[0,0.5],[1,0.5]];portConstraint=eastwest;top=0;left=0;right=0;bottom=0;" vertex="1" parent="y0bhlYf6M-Ho5EivJvn0-74">
          <mxGeometry y="110" width="200" height="80" as="geometry" />
        </mxCell>
        <mxCell id="y0bhlYf6M-Ho5EivJvn0-82" value="" style="shape=partialRectangle;overflow=hidden;connectable=0;fillColor=none;top=0;left=0;bottom=0;right=0;" vertex="1" parent="y0bhlYf6M-Ho5EivJvn0-81">
          <mxGeometry width="50.000000000000114" height="80" as="geometry" />
        </mxCell>
        <mxCell id="y0bhlYf6M-Ho5EivJvn0-83" value="TotalOrder_cost&#xa;Order_date&#xa;Order_status" style="shape=partialRectangle;overflow=hidden;connectable=0;fillColor=none;top=0;left=0;bottom=0;right=0;align=left;spacingLeft=6;" vertex="1" parent="y0bhlYf6M-Ho5EivJvn0-81">
          <mxGeometry x="50.000000000000114" width="149.9999999999999" height="80" as="geometry" />
        </mxCell>
        <mxCell id="y0bhlYf6M-Ho5EivJvn0-95" value="" style="edgeStyle=entityRelationEdgeStyle;fontSize=12;html=1;endArrow=ERoneToMany;exitX=0.981;exitY=0.995;exitDx=0;exitDy=0;exitPerimeter=0;" edge="1" parent="1" source="y0bhlYf6M-Ho5EivJvn0-46">
          <mxGeometry width="100" height="100" relative="1" as="geometry">
            <mxPoint x="492.51999999999975" y="509.9999999999999" as="sourcePoint" />
            <mxPoint x="780" y="511.1" as="targetPoint" />
          </mxGeometry>
        </mxCell>
        <mxCell id="y0bhlYf6M-Ho5EivJvn0-118" value="" style="endArrow=ERmandOne;html=1;rounded=0;startArrow=ERmandOne;startFill=0;endFill=0;" edge="1" parent="1">
          <mxGeometry relative="1" as="geometry">
            <mxPoint x="930" y="430" as="sourcePoint" />
            <mxPoint x="930" y="320" as="targetPoint" />
          </mxGeometry>
        </mxCell>
        <mxCell id="y0bhlYf6M-Ho5EivJvn0-122" value="" style="endArrow=ERmany;html=1;rounded=0;endFill=0;" edge="1" parent="1">
          <mxGeometry relative="1" as="geometry">
            <mxPoint x="440" y="530" as="sourcePoint" />
            <mxPoint x="441" y="600" as="targetPoint" />
          </mxGeometry>
        </mxCell>
        <mxCell id="y0bhlYf6M-Ho5EivJvn0-126" value="" style="endArrow=none;html=1;rounded=0;endFill=0;startArrow=ERmany;startFill=0;" edge="1" parent="1">
          <mxGeometry relative="1" as="geometry">
            <mxPoint x="120" y="320" as="sourcePoint" />
            <mxPoint x="120" y="610" as="targetPoint" />
          </mxGeometry>
        </mxCell>
        <mxCell id="y0bhlYf6M-Ho5EivJvn0-127" value="" style="endArrow=ERzeroToMany;html=1;rounded=0;startArrow=ERmany;startFill=0;endFill=1;" edge="1" parent="1">
          <mxGeometry relative="1" as="geometry">
            <mxPoint x="270" y="230" as="sourcePoint" />
            <mxPoint x="350" y="232" as="targetPoint" />
          </mxGeometry>
        </mxCell>
        <mxCell id="y0bhlYf6M-Ho5EivJvn0-129" value="" style="endArrow=ERzeroToMany;html=1;rounded=0;startArrow=none;startFill=0;endFill=1;" edge="1" parent="1">
          <mxGeometry relative="1" as="geometry">
            <mxPoint x="437" y="420" as="sourcePoint" />
            <mxPoint x="437" y="290" as="targetPoint" />
          </mxGeometry>
        </mxCell>
        <mxCell id="y0bhlYf6M-Ho5EivJvn0-130" value="" style="endArrow=none;html=1;rounded=0;endFill=0;startArrow=ERoneToMany;startFill=0;" edge="1" parent="1">
          <mxGeometry relative="1" as="geometry">
            <mxPoint x="290" y="490" as="sourcePoint" />
            <mxPoint x="350" y="490" as="targetPoint" />
          </mxGeometry>
        </mxCell>
        <mxCell id="y0bhlYf6M-Ho5EivJvn0-131" value="" style="endArrow=none;html=1;rounded=0;startArrow=ERoneToMany;startFill=0;" edge="1" parent="1">
          <mxGeometry relative="1" as="geometry">
            <mxPoint x="270" y="320" as="sourcePoint" />
            <mxPoint x="400" y="320" as="targetPoint" />
          </mxGeometry>
        </mxCell>
        <mxCell id="y0bhlYf6M-Ho5EivJvn0-134" value="" style="endArrow=none;html=1;rounded=0;" edge="1" parent="1">
          <mxGeometry relative="1" as="geometry">
            <mxPoint x="160" y="40" as="sourcePoint" />
            <mxPoint x="940" y="40" as="targetPoint" />
          </mxGeometry>
        </mxCell>
        <mxCell id="y0bhlYf6M-Ho5EivJvn0-135" value="" style="endArrow=ERmandOne;html=1;rounded=0;endFill=0;" edge="1" parent="1">
          <mxGeometry relative="1" as="geometry">
            <mxPoint x="160" y="40" as="sourcePoint" />
            <mxPoint x="160" y="120" as="targetPoint" />
          </mxGeometry>
        </mxCell>
        <mxCell id="y0bhlYf6M-Ho5EivJvn0-136" value="" style="endArrow=ERmandOne;html=1;rounded=0;entryX=0.5;entryY=0;entryDx=0;entryDy=0;endFill=0;" edge="1" parent="1">
          <mxGeometry relative="1" as="geometry">
            <mxPoint x="940" y="40" as="sourcePoint" />
            <mxPoint x="940" y="116.25000000000011" as="targetPoint" />
          </mxGeometry>
        </mxCell>
        <mxCell id="y0bhlYf6M-Ho5EivJvn0-137" value="" style="endArrow=ERmandOne;html=1;rounded=0;startArrow=ERmandOne;startFill=0;endFill=0;" edge="1" parent="1">
          <mxGeometry relative="1" as="geometry">
            <mxPoint x="200" y="560" as="sourcePoint" />
            <mxPoint x="200" y="614" as="targetPoint" />
          </mxGeometry>
        </mxCell>
        <mxCell id="y0bhlYf6M-Ho5EivJvn0-138" value="" style="endArrow=none;html=1;rounded=0;" edge="1" parent="1">
          <mxGeometry relative="1" as="geometry">
            <mxPoint x="240" y="80" as="sourcePoint" />
            <mxPoint x="830" y="80" as="targetPoint" />
          </mxGeometry>
        </mxCell>
        <mxCell id="y0bhlYf6M-Ho5EivJvn0-141" value="" style="endArrow=ERmandOne;html=1;rounded=0;startArrow=none;startFill=0;endFill=0;" edge="1" parent="1">
          <mxGeometry relative="1" as="geometry">
            <mxPoint x="240" y="80" as="sourcePoint" />
            <mxPoint x="240" y="120" as="targetPoint" />
          </mxGeometry>
        </mxCell>
        <mxCell id="y0bhlYf6M-Ho5EivJvn0-142" value="" style="endArrow=ERmany;html=1;rounded=0;startArrow=none;startFill=0;endFill=0;" edge="1" parent="1">
          <mxGeometry relative="1" as="geometry">
            <mxPoint x="831" y="80" as="sourcePoint" />
            <mxPoint x="830" y="430" as="targetPoint" />
          </mxGeometry>
        </mxCell>
        <mxCell id="y0bhlYf6M-Ho5EivJvn0-143" value="" style="endArrow=ERmandOne;html=1;rounded=0;startArrow=none;startFill=0;endFill=0;" edge="1" parent="1">
          <mxGeometry relative="1" as="geometry">
            <mxPoint x="810" y="700" as="sourcePoint" />
            <mxPoint x="810" y="640" as="targetPoint" />
          </mxGeometry>
        </mxCell>
        <mxCell id="y0bhlYf6M-Ho5EivJvn0-144" value="" style="endArrow=ERmany;html=1;rounded=0;endFill=0;" edge="1" parent="1">
          <mxGeometry relative="1" as="geometry">
            <mxPoint x="810" y="700" as="sourcePoint" />
            <mxPoint x="530" y="700" as="targetPoint" />
          </mxGeometry>
        </mxCell>
        <mxCell id="y0bhlYf6M-Ho5EivJvn0-145" value="" style="endArrow=ERoneToMany;html=1;rounded=0;endFill=0;" edge="1" parent="1">
          <mxGeometry relative="1" as="geometry">
            <mxPoint x="660" y="435" as="sourcePoint" />
            <mxPoint x="780" y="435" as="targetPoint" />
          </mxGeometry>
        </mxCell>
        <mxCell id="y0bhlYf6M-Ho5EivJvn0-146" value="" style="endArrow=ERoneToMany;html=1;rounded=0;startArrow=none;startFill=0;endFill=0;" edge="1" parent="1">
          <mxGeometry relative="1" as="geometry">
            <mxPoint x="660" y="440" as="sourcePoint" />
            <mxPoint x="660.29" y="292.5" as="targetPoint" />
          </mxGeometry>
        </mxCell>
        <mxCell id="y0bhlYf6M-Ho5EivJvn0-147" value="" style="endArrow=ERzeroToOne;html=1;rounded=0;endFill=1;startArrow=none;" edge="1" parent="1" source="y0bhlYf6M-Ho5EivJvn0-42">
          <mxGeometry relative="1" as="geometry">
            <mxPoint x="400" y="320" as="sourcePoint" />
            <mxPoint x="400" y="420" as="targetPoint" />
          </mxGeometry>
        </mxCell>
        <mxCell id="y0bhlYf6M-Ho5EivJvn0-149" value="" style="endArrow=ERone;html=1;rounded=0;startArrow=none;startFill=0;endFill=0;" edge="1" parent="1">
          <mxGeometry relative="1" as="geometry">
            <mxPoint x="510" y="480" as="sourcePoint" />
            <mxPoint x="780" y="480" as="targetPoint" />
          </mxGeometry>
        </mxCell>
        <mxCell id="y0bhlYf6M-Ho5EivJvn0-150" value="" style="endArrow=none;html=1;rounded=0;startArrow=ERzeroToOne;startFill=1;" edge="1" parent="1">
          <mxGeometry relative="1" as="geometry">
            <mxPoint x="510" y="290" as="sourcePoint" />
            <mxPoint x="510" y="480" as="targetPoint" />
          </mxGeometry>
        </mxCell>
        <mxCell id="y0bhlYf6M-Ho5EivJvn0-42" value="COS" style="shape=table;startSize=20;container=1;collapsible=1;childLayout=tableLayout;fixedRows=1;rowLines=0;fontStyle=1;align=center;resizeLast=1;fillColor=#1ba1e2;strokeColor=#006EAF;fontColor=#ffffff;" vertex="1" parent="1">
          <mxGeometry x="350" y="420" width="140" height="110" as="geometry" />
        </mxCell>
        <mxCell id="y0bhlYf6M-Ho5EivJvn0-43" value="" style="shape=partialRectangle;collapsible=0;dropTarget=0;pointerEvents=0;fillColor=none;points=[[0,0.5],[1,0.5]];portConstraint=eastwest;top=0;left=0;right=0;bottom=1;strokeColor=#3333FF;" vertex="1" parent="y0bhlYf6M-Ho5EivJvn0-42">
          <mxGeometry y="20" width="140" height="20" as="geometry" />
        </mxCell>
        <mxCell id="y0bhlYf6M-Ho5EivJvn0-44" value="PK" style="shape=partialRectangle;overflow=hidden;connectable=0;fillColor=none;top=0;left=0;bottom=0;right=0;fontStyle=1;" vertex="1" parent="y0bhlYf6M-Ho5EivJvn0-43">
          <mxGeometry width="50.000000000000114" height="20" as="geometry" />
        </mxCell>
        <mxCell id="y0bhlYf6M-Ho5EivJvn0-45" value="COS_ID" style="shape=partialRectangle;overflow=hidden;connectable=0;fillColor=none;top=0;left=0;bottom=0;right=0;align=left;spacingLeft=6;fontStyle=5;" vertex="1" parent="y0bhlYf6M-Ho5EivJvn0-43">
          <mxGeometry x="50.000000000000114" width="89.99999999999989" height="20" as="geometry" />
        </mxCell>
        <mxCell id="y0bhlYf6M-Ho5EivJvn0-46" value="" style="shape=partialRectangle;collapsible=0;dropTarget=0;pointerEvents=0;fillColor=none;points=[[0,0.5],[1,0.5]];portConstraint=eastwest;top=0;left=0;right=0;bottom=0;" vertex="1" parent="y0bhlYf6M-Ho5EivJvn0-42">
          <mxGeometry y="40" width="140" height="50" as="geometry" />
        </mxCell>
        <mxCell id="y0bhlYf6M-Ho5EivJvn0-47" value="&#xa;FK1&#xa;FK2&#xa;" style="shape=partialRectangle;overflow=hidden;connectable=0;fillColor=none;top=0;left=0;bottom=0;right=0;" vertex="1" parent="y0bhlYf6M-Ho5EivJvn0-46">
          <mxGeometry width="50.000000000000114" height="50" as="geometry" />
        </mxCell>
        <mxCell id="y0bhlYf6M-Ho5EivJvn0-48" value="Order_ID&#xa;Employee_ID" style="shape=partialRectangle;overflow=hidden;connectable=0;fillColor=none;top=0;left=0;bottom=0;right=0;align=left;spacingLeft=6;" vertex="1" parent="y0bhlYf6M-Ho5EivJvn0-46">
          <mxGeometry x="50.000000000000114" width="89.99999999999989" height="50" as="geometry" />
        </mxCell>
        <mxCell id="y0bhlYf6M-Ho5EivJvn0-163" value="" style="endArrow=none;html=1;rounded=0;endFill=1;" edge="1" parent="1">
          <mxGeometry relative="1" as="geometry">
            <mxPoint x="400" y="319.9999999999999" as="sourcePoint" />
            <mxPoint x="401" y="416" as="targetPoint" />
          </mxGeometry>
        </mxCell>
      </root>
    </mxGraphModel>
  </diagram>
  <diagram id="w2OZLRFMWRGQa7qA84vt" name="Page-2">
    <mxGraphModel dx="1038" dy="489" grid="1" gridSize="10" guides="1" tooltips="1" connect="1" arrows="1" fold="1" page="1" pageScale="1" pageWidth="850" pageHeight="1100" math="0" shadow="0">
      <root>
        <mxCell id="yQhmhDiTf8dfNAiSWZab-0" />
        <mxCell id="yQhmhDiTf8dfNAiSWZab-1" parent="yQhmhDiTf8dfNAiSWZab-0" />
      </root>
    </mxGraphModel>
  </diagram>
</mxfile>
